<svg version="1.1" preserveAspectRatio="none" xmlns="http://www.w3.org/2000/svg" width="500" height="500" viewBox="0 0 500 500"><rect width="100%" height="100%" fill="#FBFBFB" fill-opacity="1"/><svg viewBox="97.9478 529.4453 535.1918 120" width="333" height="74.66482109778215" x="83.5px" y="212.6676px" xmlns="http://www.w3.org/2000/svg" xmlns:xlink="http://www.w3.org/1999/xlink" preserveAspectRatio="none"><defs></defs><style>.aIptOCySncolors-3 {fill:#EFEFEF;fill-opacity:1;}.aIptOCySncolors-4 {fill:#3E4AB8;fill-opacity:1;}.aIptOCySncolors-5 {fill:#A0A0A0;fill-opacity:1;}.aIptOCySncolors-6 {fill:#F5F7FF;fill-opacity:1;}.aIptOCySncolors-7 {fill:#3E4AB8;fill-opacity:1;}.companyName {fill:#0A0A0A;fill-opacity:1;}.icon1 {fill:#A0A0A0;fill-opacity:1;}.icon2 {fill:#FBFBFB;fill-opacity:1;}.icon3 {fill:#0A0A0A;fill-opacity:1;}.icon3-str {stroke:#0A0A0A;stroke-opacity:1;}</style><g opacity="1" transform="rotate(0 97.9478 529.4453)">
<svg width="260.5159" height="120" x="97.9478" y="529.4453" version="1.1" preserveAspectRatio="none" viewBox="20 63.100013732910156 160.00001525878906 73.6999740600586">
  <g transform="matrix(1 0 0 1 0 0)"><g><path d="m78.2 125.8-5.5-5.4 20.5-20.5-20.5-20.4 5.5-5.4 25.9 25.8z" data-color="1" class="icon1"></path><path d="m109.1 125.8-5.4-5.4 20.4-20.5-20.4-20.4 5.4-5.4 26 25.8z" data-color="1" class="icon1"></path><path d="M174.8 94.2c-1.3-1.5-2-3.2-2-5v-9.3c0-3.5-.8-6.4-2.2-8.9s-3.4-4.3-6-5.7c-2.5-1.3-5.5-2-8.9-2h-3.8v7.4h2.9c2.7 0 4.8.9 6.4 2.7s2.4 4.2 2.4 7.1v7.6c0 3.6.9 6.5 2.8 8.7 1.2 1.4 2.6 2.4 4.1 3.2-1.6.8-3 2-4.2 3.4-1.8 2.2-2.7 4.9-2.7 8.5v7.6c0 3.2-.8 5.6-2.4 7.3-1.6 1.6-3.8 2.5-6.4 2.5h-2.9v7.5h3.8c3.4 0 6.3-.5 8.9-1.9 2.6-1.3 4.6-3.2 6-5.6 1.5-2.5 2.2-5.6 2.2-9.1v-9.3c0-2 .6-3.6 2-4.9 1.3-1.3 3.1-2.2 5.2-2.5V97c-2.1-.3-3.8-1.2-5.2-2.6Z" data-color="1" class="icon1"></path><path d="M35.4 65.2c-2.5 1.3-4.6 3.2-6.1 5.7s-2.2 5.4-2.2 8.9v9.3c0 1.9-.6 3.6-1.9 5-1.3 1.5-3 2.3-5.2 2.6v6.5c2.2.3 3.9 1.1 5.2 2.5 1.3 1.3 1.9 2.9 1.9 4.9v9.3c0 3.6.8 6.6 2.2 9.1 1.5 2.5 3.5 4.3 6.1 5.6 2.5 1.3 5.6 2 8.9 2h3.8v-7.5h-2.8c-2.6 0-4.8-.8-6.5-2.5-1.6-1.8-2.4-4.2-2.4-7.3v-7.6c0-3.5-.9-6.3-2.7-8.5-1.1-1.4-2.5-2.6-4.1-3.4 1.6-.8 2.9-1.9 4.1-3.2 1.8-2.2 2.7-5.2 2.7-8.7v-7.6c0-2.9.8-5.3 2.4-7.1 1.7-1.8 3.9-2.7 6.5-2.7h2.8v-7.4h-3.8c-3.2 0-6.2.6-8.8 2Z" data-color="1" class="icon1"></path></g></g>
</svg>
</g><g opacity="1" transform="rotate(0 384.4637 529.4453)">
<svg width="248.6759" height="120" x="384.4637" y="529.4453" version="1.1" preserveAspectRatio="none" viewBox="1.7773 -27.1875 56.5431 27.2852">
  <g transform="matrix(1 0 0 1 0 0)" class="companyName"><path id="id-D6z1nYkh2" d="M21.04-12.70L21.04-12.70L21.04-14.02Q21.04-16.09 20.47-18.07L20.47-18.07Q19.26-22.27 15.96-23.73L15.96-23.73Q14.45-24.39 12.68-24.39L12.68-24.39L12.40-24.38Q10.18-24.38 9.90-23.38L9.90-23.38Q9.84-23.16 9.84-17.54L9.84-17.54L9.84-10.04L9.82-9.75Q9.82-9.45 9.82-9.16L9.82-9.16L9.77-7.11Q9.77-6.82 9.77-6.52L9.77-6.52L9.75-5.64L9.75-5.33Q9.75-3.69 10.16-3.16Q10.57-2.64 12.25-2.64L12.25-2.64L13.42-2.64Q15.06-2.64 16.55-3.48Q18.05-4.32 18.93-5.50Q19.80-6.68 20.42-8.60Q21.04-10.53 21.04-12.70ZM2.93-24.43Q1.82-25 1.82-25.79Q1.82-26.58 2.75-26.74L2.75-26.74Q5.39-27.19 11.84-27.19L11.84-27.19L12.87-27.19Q19.69-27.19 23.59-23.60Q27.50-20.02 27.50-13.75Q27.50-7.48 23.59-3.69Q19.69 0.10 13.24 0.10L13.24 0.10L11.70 0.10L11.19 0.08L10.14 0.06Q9.63 0.04 9.14 0.04L9.14 0.04L4.77-0.10Q2.58-0.10 2.18-0.35Q1.78-0.61 1.78-1.35L1.78-1.35Q1.78-1.78 2.91-2.53Q4.04-3.28 4.34-4.32Q4.63-5.35 4.63-11.19L4.63-11.19L4.59-13.69L4.65-16.64L4.67-17.13Q4.69-17.64 4.69-18.13L4.69-18.13L4.73-19.59Q4.73-22.25 4.32-23.22L4.32-23.22Q4.04-23.87 2.93-24.43Z M55.45-6.25Q55.41-5.14 55.41-3.10Q55.41-1.05 55.17-0.69Q54.92-0.33 53.93-0.33L53.93-0.33Q53.59-0.33 52.27-1.06Q50.94-1.80 49.86-3.13L49.86-3.13Q49.41-3.67 44.08-11.46Q38.75-19.26 37.79-19.26L37.79-19.26Q37.40-19.26 37.40-13.96Q37.40-8.65 38.16-4.41L38.16-4.41Q38.38-3.22 38.92-2.48Q39.45-1.74 39.45-1.25L39.45-1.25L39.30-0.80Q38.73-0.14 35.55-0.14L35.55-0.14L34.71-0.14Q32.19-0.14 31.72-0.51Q31.25-0.88 31.25-1.62L31.25-1.62Q31.25-2.03 32.33-2.69Q33.42-3.34 33.63-3.98L33.63-3.98Q33.75-4.34 33.75-7.46L33.75-7.46L33.79-8.40L33.85-11.21Q33.91-14.00 33.91-17.57Q33.91-21.13 33.64-22.04Q33.38-22.95 32.21-23.82Q31.04-24.69 31.04-25.40Q31.04-26.11 31.59-26.49Q32.15-26.88 33.75-26.88L33.75-26.88L34.63-26.88Q37.79-26.88 40.25-24.20Q42.71-21.52 46.83-15.55Q50.94-9.57 51.56-9.57L51.56-9.57Q52.30-9.57 52.30-17.27L52.30-17.27Q52.30-22.99 51.04-24.47L51.04-24.47Q50.31-25.33 50.31-25.66L50.31-25.66Q50.31-26.54 52.09-26.54L52.09-26.54Q55.64-26.54 56.98-26.24Q58.32-25.94 58.32-24.98L58.32-24.98Q58.32-24.41 57.16-23.23Q56.00-22.05 55.88-21.57Q55.76-21.09 55.76-17.03L55.76-17.03L55.51-7.97L55.49-7.11L55.45-6.25Z"/></g>
</svg>
</g></svg></svg>